<?xml version="1.0" standalone="no"?>
<!DOCTYPE svg PUBLIC "-//W3C//DTD SVG 20010904//EN"
 "http://www.w3.org/TR/2001/REC-SVG-20010904/DTD/svg10.dtd">
<svg version="1.0" xmlns="http://www.w3.org/2000/svg"
 width="886.000000pt" height="886.000000pt" viewBox="0 0 886.000000 886.000000"
 preserveAspectRatio="xMidYMid meet">
<metadata>
Created by potrace 1.14, written by Peter Selinger 2001-2017
</metadata>
<g transform="translate(0.000000,886.000000) scale(0.100000,-0.100000)"
fill="#000000" stroke="none">
<path d="M3870 8829 l-31 -32 24 -26 c33 -35 37 -59 22 -131 -11 -53 -12 -131
-2 -205 6 -40 -49 -125 -80 -125 -14 0 -18 -46 -5 -54 12 -7 2 -65 -12 -73 -6
-4 -56 -8 -112 -9 -66 0 -115 -6 -145 -17 -24 -10 -53 -18 -64 -20 -11 -1 -24
-5 -30 -9 -19 -11 -161 -47 -275 -68 -63 -12 -124 -26 -136 -30 -12 -5 -49
-11 -82 -15 -33 -3 -71 -8 -84 -10 -13 -3 -50 -8 -83 -11 -33 -4 -68 -11 -79
-16 -11 -6 -16 -6 -13 0 8 12 -68 -6 -110 -26 -58 -29 -50 -82 13 -82 30 0 34
3 34 25 0 27 -7 26 133 27 37 0 70 -2 74 -5 3 -4 14 -2 24 4 20 10 20 9 23
-30 2 -33 12 -33 44 -1 17 16 39 31 49 31 48 4 62 8 99 32 67 41 127 57 224
57 110 0 122 -4 108 -35 -17 -38 -78 -57 -116 -36 -11 6 -31 4 -57 -5 -53 -20
-75 -26 -105 -29 -14 -2 -25 -4 -25 -5 0 -1 -16 -3 -34 -6 -45 -6 -77 -27 -96
-64 -29 -56 -79 -63 -105 -15 -7 14 -17 25 -22 25 -14 0 -48 -39 -48 -55 0 -8
-4 -23 -9 -33 -10 -18 -61 -173 -65 -195 -1 -7 -5 -18 -10 -26 -5 -7 -10 -44
-12 -81 -2 -53 2 -82 23 -136 14 -38 28 -79 30 -92 3 -12 9 -25 14 -28 5 -3 9
-21 9 -40 0 -26 -8 -43 -35 -70 -19 -19 -35 -37 -35 -40 0 -6 -160 -245 -170
-254 -24 -22 -80 -120 -80 -140 l0 -25 20 25 c11 14 48 65 83 114 209 297 243
330 287 283 25 -26 160 -296 160 -318 0 -25 -21 -37 -75 -45 -28 -3 -62 -13
-77 -20 -15 -8 -30 -14 -33 -14 -7 -1 -25 -6 -75 -23 -47 -17 -203 -56 -305
-77 -136 -27 -145 -34 -183 -135 -11 -27 -31 -76 -46 -107 -14 -32 -22 -58
-18 -58 20 1 82 74 112 133 16 32 33 43 70 48 14 2 39 13 55 25 54 38 89 51
147 53 32 1 62 0 67 -4 20 -12 -96 -180 -132 -191 -14 -5 -26 0 -37 14 -24 30
-54 32 -58 5 -2 -14 10 -36 37 -65 47 -50 59 -93 41 -148 -10 -31 -10 -51 1
-107 16 -81 16 -82 19 -85 1 -2 4 -25 6 -53 8 -86 26 -159 46 -187 31 -45 29
-60 -18 -112 -65 -74 -97 -123 -90 -141 5 -14 10 -14 36 5 16 12 30 25 30 29
0 17 54 61 75 61 35 0 70 -45 98 -126 13 -38 12 -40 -7 -41 -251 -10 -259 -11
-280 -36 -12 -13 -46 -32 -76 -41 -30 -10 -84 -29 -120 -42 -36 -13 -68 -23
-71 -21 -10 4 -40 -33 -34 -43 3 -5 35 -10 71 -10 66 0 73 -3 51 -24 -6 -7
-37 -41 -67 -76 -30 -35 -75 -86 -100 -114 -109 -125 -130 -150 -130 -157 0
-3 14 -6 31 -6 28 0 42 -10 52 -37 8 -22 37 7 67 66 18 35 36 68 41 74 5 6 6
14 2 17 -3 4 -1 7 5 7 7 0 12 5 12 11 0 6 14 31 30 56 17 24 30 46 30 48 0 3
10 17 23 31 46 56 77 84 90 84 21 0 157 -70 157 -80 0 -19 16 -10 33 18 25 42
76 94 140 146 50 40 64 46 104 46 l46 0 -5 -51 c-7 -72 -32 -101 -104 -120
-71 -18 -81 -23 -134 -73 -38 -35 -42 -42 -37 -73 9 -56 34 -86 65 -80 15 3
43 8 62 12 25 4 41 2 55 -9 20 -16 19 -17 -20 -51 -22 -19 -43 -35 -47 -35 -6
0 -90 -53 -174 -110 -23 -15 -52 -31 -64 -35 -22 -7 -23 -5 -17 34 4 30 13 48
34 64 15 12 45 38 65 58 30 29 35 39 25 47 -21 18 -80 21 -112 7 -26 -10 -32
-21 -48 -81 -9 -38 -19 -80 -22 -94 -3 -14 -16 -73 -30 -133 -24 -100 -26
-120 -21 -290 3 -123 9 -200 20 -237 21 -72 20 -96 -3 -119 -19 -19 -86 -37
-173 -47 -74 -8 -89 1 -104 61 -65 255 -75 307 -78 409 -3 113 11 192 49 281
23 52 28 85 14 85 -23 0 -209 -203 -280 -305 -52 -75 -59 -83 -161 -214 -38
-47 -68 -90 -68 -94 0 -5 14 -22 31 -39 36 -37 23 -54 -24 -30 -30 15 -31 15
-57 -16 -30 -37 -45 -40 -59 -13 -8 15 -5 24 15 44 14 14 27 38 30 54 3 15 18
57 34 92 17 35 30 74 30 87 0 16 10 28 31 39 34 18 66 50 185 181 137 149 144
158 150 176 3 10 10 18 15 18 6 0 8 4 4 9 -14 24 -52 0 -137 -86 -50 -51 -99
-93 -109 -93 -34 0 -48 57 -54 228 -2 52 -6 96 -8 98 -4 4 8 64 32 159 11 43
22 97 26 132 2 11 5 29 8 40 3 10 9 43 12 73 4 30 8 69 10 87 2 17 22 74 44
127 23 52 41 98 41 101 0 3 16 28 35 56 19 28 35 60 35 70 0 11 3 19 8 19 4 0
13 15 21 33 8 17 17 34 21 37 3 3 21 26 38 52 18 25 39 54 49 63 9 9 36 42 60
73 76 100 81 106 108 137 29 32 77 126 70 134 -6 5 -71 -61 -140 -144 -27 -33
-54 -63 -60 -67 -6 -5 -6 -8 -1 -8 6 0 3 -6 -5 -12 -9 -7 -60 -71 -114 -143
-54 -71 -101 -132 -105 -135 -4 -3 -40 -43 -80 -90 -40 -47 -76 -87 -79 -90
-4 -3 -50 -54 -103 -115 -52 -60 -122 -135 -154 -165 -101 -95 -166 -180 -136
-180 14 0 72 40 72 50 0 16 121 139 133 137 6 -1 17 -6 23 -12 12 -10 4 -35
-20 -61 -6 -7 -21 -25 -32 -41 -12 -15 -68 -89 -125 -163 -57 -74 -111 -146
-120 -160 -9 -14 -26 -36 -38 -49 -11 -13 -21 -27 -21 -31 0 -3 -8 -15 -18
-26 -17 -19 -93 -132 -140 -209 -14 -22 -33 -52 -44 -67 -10 -15 -18 -30 -18
-34 0 -11 -92 -156 -113 -179 -10 -11 -27 -36 -37 -55 -23 -45 -51 -70 -84
-76 -23 -4 -26 -2 -22 20 4 23 53 131 69 151 4 6 35 56 70 112 34 56 111 175
171 264 187 276 225 349 155 296 -37 -28 -336 -462 -390 -567 -19 -36 -37 -69
-42 -75 -25 -34 -171 -342 -187 -397 -22 -73 -66 -127 -103 -129 -12 0 -38 -2
-57 -4 -19 -1 -45 -3 -57 -4 l-23 -1 21 -39 c26 -51 44 -65 106 -85 59 -20 83
-36 173 -122 111 -106 203 -184 310 -264 19 -14 41 -32 50 -40 9 -8 47 -41 85
-72 39 -31 84 -68 100 -83 25 -22 98 -85 139 -120 13 -12 176 -155 192 -170 6
-5 49 -44 95 -85 46 -41 112 -103 146 -136 60 -59 62 -63 53 -94 -5 -18 -27
-49 -50 -70 -22 -20 -41 -44 -41 -53 -1 -10 -2 -23 -3 -29 -1 -7 4 -35 12 -63
7 -27 14 -54 16 -60 8 -32 42 -87 60 -97 27 -15 105 -18 133 -5 12 5 27 23 34
38 6 16 17 29 25 29 12 0 74 -79 74 -95 0 -3 16 -28 35 -56 19 -28 35 -55 35
-60 0 -14 61 -109 70 -109 4 0 13 14 19 31 8 24 16 30 33 27 17 -2 24 -12 30
-42 9 -40 32 -88 59 -118 14 -16 89 -161 89 -172 0 -2 -7 -3 -15 -2 -20 3 -83
73 -104 116 -32 68 -81 130 -102 130 -4 0 1 -18 12 -40 10 -21 19 -44 19 -51
0 -6 13 -38 30 -70 l30 -59 -23 -14 c-22 -15 -103 -37 -110 -30 -2 2 -50 6
-108 9 -217 11 -339 20 -393 31 -10 2 -44 6 -75 9 -31 3 -76 8 -101 11 -43 5
-88 10 -190 20 -50 5 -166 4 -220 -1 -35 -3 -175 -12 -350 -20 -272 -14 -295
-17 -364 -52 l-28 -15 23 -25 c23 -23 27 -24 109 -18 85 6 97 7 200 20 94 11
104 13 155 24 85 19 103 20 351 21 274 1 313 -2 465 -34 113 -23 115 -24 80
-50 -22 -16 -27 -26 -20 -37 5 -7 9 -10 9 -6 0 4 9 3 19 -2 57 -31 431 -31
431 0 0 5 -47 9 -105 9 -75 0 -117 5 -147 17 -40 16 -41 18 -18 23 14 4 102 8
197 9 94 1 184 6 200 10 24 7 45 6 88 -3 44 -9 120 -45 131 -61 7 -11 16 -38
19 -60 13 -84 16 -98 26 -116 21 -40 32 -41 259 -22 163 13 771 2 855 -16 28
-6 55 -12 60 -14 145 -45 287 -93 415 -140 78 -29 348 -34 430 -7 85 27 185 9
252 -45 42 -35 17 -53 -87 -62 -33 -2 -73 -11 -89 -19 -23 -11 -37 -12 -70 -2
-23 6 -43 12 -46 13 -3 1 -36 11 -75 24 -93 29 -139 33 -186 14 -34 -13 -88
-68 -78 -78 2 -2 21 -6 43 -9 21 -4 41 -8 45 -11 4 -2 45 -6 92 -10 46 -3 113
-8 149 -11 109 -9 116 -9 180 20 51 23 68 26 103 20 54 -10 88 -8 161 13 54
15 58 18 40 29 -57 38 -57 39 -17 42 96 9 200 -7 296 -43 20 -8 37 -13 37 -10
0 2 10 1 23 -4 35 -13 191 -26 287 -24 82 2 431 3 655 1 61 0 146 0 190 0 44
0 116 0 160 0 44 0 100 3 125 7 59 10 148 10 235 0 72 -8 219 -11 290 -5 38 3
104 -6 114 -16 9 -8 -14 -23 -44 -28 -16 -3 -57 -8 -90 -11 -33 -4 -76 -8 -95
-11 -19 -2 -60 -6 -90 -9 -70 -7 -107 -14 -145 -27 -22 -8 -43 -7 -80 4 -50
15 -143 16 -208 4 -39 -7 -71 -44 -57 -66 4 -7 6 -18 4 -24 -8 -21 22 -48 52
-48 77 1 337 0 489 -2 94 -2 182 2 198 7 31 10 53 42 37 52 -29 18 -3 42 53
50 12 2 51 10 87 19 36 9 87 16 113 16 27 0 64 8 85 19 36 18 94 34 237 66 39
9 99 22 135 31 36 8 76 16 90 19 14 2 51 13 83 24 31 11 57 17 57 14 0 -3 7 1
17 8 12 10 53 14 157 15 137 0 143 1 195 30 103 56 134 102 71 105 -44 2 -164
-13 -183 -23 -10 -5 -21 -7 -24 -4 -3 2 -16 1 -29 -4 -14 -6 -35 -12 -47 -14
-12 -2 -51 -11 -86 -21 l-63 -16 -39 25 c-43 29 -65 32 -104 14 -30 -14 -31
-19 -5 -43 11 -10 20 -22 20 -27 0 -18 -67 -34 -215 -54 -27 -3 -57 -8 -65
-10 -23 -5 -133 -35 -150 -41 -8 -3 -25 -7 -38 -9 -12 -1 -46 -7 -75 -13 -63
-13 -196 -22 -219 -15 -15 5 -15 7 0 34 16 28 35 40 72 46 56 9 108 14 200 19
58 3 121 8 140 11 39 6 117 49 103 56 -9 6 -78 3 -193 -6 -41 -4 -113 -9 -160
-12 -112 -6 -174 -11 -237 -20 -40 -5 -55 -3 -67 9 -9 9 -16 20 -16 26 0 6 -9
15 -20 21 -11 6 -23 22 -26 35 -3 14 -10 25 -15 25 -13 0 -2 38 18 58 24 25
90 66 129 79 28 10 33 8 50 -15 45 -60 40 -59 159 -47 190 17 384 24 425 13
14 -3 43 -11 66 -17 93 -25 208 -20 326 15 53 16 58 16 74 0 16 -16 64 -20 89
-7 6 3 30 6 55 6 25 1 67 11 93 24 27 12 58 23 69 24 19 1 19 2 -4 22 -23 20
-34 20 -661 20 -450 0 -637 3 -637 11 0 15 26 38 90 81 64 42 107 85 138 134
26 42 67 81 276 259 69 59 84 87 72 135 -7 29 -36 57 -63 62 -10 2 -48 5 -85
8 -70 3 -108 12 -108 23 0 37 126 155 199 188 23 10 41 21 41 25 0 4 24 13 54
19 82 17 114 83 47 96 -36 8 -49 19 -106 94 -27 36 -53 67 -57 68 -4 2 -8 9
-8 15 0 6 -8 20 -19 31 -10 12 -48 66 -84 121 -37 55 -71 105 -77 112 -5 7
-10 15 -10 18 0 3 -18 33 -41 66 -38 56 -149 263 -148 274 0 3 -5 20 -12 38
-6 18 -13 35 -14 40 -1 4 -4 10 -5 15 -1 4 -2 10 -1 15 0 4 -4 7 -11 7 -6 0
-9 3 -5 6 3 3 -5 24 -19 45 -32 52 -73 141 -90 201 -8 26 -43 108 -78 180 -93
194 -148 314 -150 328 -1 3 -16 30 -33 61 -32 55 -60 140 -69 214 -3 22 -12
72 -20 110 -8 39 -17 108 -20 154 -6 95 -14 118 -50 131 -39 15 -41 39 -5 67
37 29 39 51 7 88 -21 25 -24 35 -20 99 3 78 -4 100 -32 94 -14 -2 -21 -16 -26
-53 -12 -81 -13 -84 -51 -118 -50 -46 -48 -61 37 -287 37 -99 54 -172 71 -315
3 -27 10 -75 15 -105 18 -114 22 -136 25 -170 3 -19 7 -46 11 -60 4 -14 8 -31
10 -38 1 -7 12 -31 23 -52 18 -34 20 -51 15 -113 -4 -48 -2 -90 8 -127 14 -50
16 -135 5 -146 -3 -3 -16 -2 -30 1 -45 12 -134 167 -142 247 -5 56 -14 77 -37
89 -51 27 -56 -61 -8 -130 18 -25 35 -60 37 -78 4 -28 1 -35 -19 -42 -13 -5
-32 -7 -43 -5 -11 2 -49 6 -85 9 -36 3 -79 9 -97 14 -17 5 -34 7 -36 4 -3 -2
-23 13 -44 34 -30 31 -44 58 -67 133 -16 52 -31 100 -32 105 -1 6 -10 37 -19
70 -9 33 -27 116 -41 185 -13 69 -27 142 -32 162 -6 26 -6 38 2 41 7 3 7 9 -3
20 -8 11 -14 44 -14 90 -2 102 15 183 68 342 77 228 84 259 78 337 -5 75 17
181 65 301 14 36 17 60 12 95 -10 64 33 222 55 201 2 -3 7 -29 9 -58 4 -51 27
-93 43 -78 8 9 8 75 -1 242 -11 185 -14 227 -20 255 -23 105 -23 254 -1 560 3
53 16 87 42 115 10 11 36 43 58 70 58 73 71 86 101 101 55 29 58 -26 10 -149
-19 -48 -33 -87 -31 -87 2 0 -5 -30 -14 -67 -22 -84 -19 -94 19 -83 17 5 32 5
35 1 2 -5 2 -33 -1 -62 -3 -30 -7 -97 -8 -149 -1 -52 -6 -111 -11 -130 -4 -19
-9 -46 -10 -60 -2 -14 -6 -52 -10 -85 -7 -69 -12 -108 -20 -185 -22 -212 -40
-270 -109 -345 -55 -60 -56 -74 -17 -216 12 -42 28 -107 37 -145 8 -38 16 -76
18 -84 4 -16 19 -101 20 -111 2 -15 35 -38 41 -28 7 11 -3 138 -12 152 -6 11
-5 173 1 202 13 57 28 90 52 123 l28 35 23 -62 c30 -82 31 -140 1 -193 -6 -13
-13 -30 -14 -38 -4 -22 25 -49 47 -43 16 4 19 15 20 62 2 138 1 189 -5 226 -7
46 -14 80 -16 80 -9 0 -13 74 -16 255 -1 118 -5 360 -7 537 -5 294 -3 329 14
395 19 74 23 98 33 198 15 141 15 205 1 224 -18 24 -66 30 -324 41 -207 8
-254 31 -358 170 -37 49 -70 92 -73 95 -41 34 -220 294 -220 319 0 6 -5 11
-10 11 -6 0 -9 3 -8 8 3 8 -16 41 -133 238 -88 147 -86 139 -95 384 -5 164
-16 220 -42 220 -61 -1 -70 -14 -101 -150 -11 -47 -25 -98 -31 -114 -9 -26 -8
-32 14 -55 14 -15 25 -39 26 -56 4 -124 -1 -310 -14 -510 -15 -213 -23 -328
-31 -415 -8 -85 -15 -161 -20 -210 -3 -25 -7 -108 -10 -185 -3 -77 -7 -153 -9
-170 -25 -209 -26 -216 -26 -481 0 -275 0 -274 -84 -279 -53 -3 -100 18 -137
60 -15 17 -68 71 -119 120 -99 96 -127 125 -148 149 -13 17 -113 213 -117 231
-1 5 -7 29 -14 52 -24 85 -22 153 6 223 15 36 32 71 40 78 12 12 76 104 98
140 6 9 13 19 16 22 3 3 14 19 24 37 25 42 57 56 141 59 52 2 78 -2 93 -13 21
-14 22 -20 16 -107 -12 -183 -7 -232 31 -329 14 -34 27 -88 31 -120 6 -62 12
-70 56 -72 26 -1 28 1 24 29 -5 29 -8 43 -24 84 -11 30 -12 44 -14 170 -1 67
-5 122 -8 122 -3 0 -6 15 -7 33 0 17 -4 68 -8 112 -5 44 -9 95 -10 114 -4 63
-36 73 -172 56 -91 -12 -109 -10 -151 21 -21 16 -39 32 -41 37 -2 4 -8 7 -14
7 -5 0 -31 17 -56 38 -26 20 -58 46 -72 57 -98 78 -172 175 -184 241 -3 13 -7
27 -10 32 -3 5 -7 19 -10 33 -3 13 -7 33 -10 44 -34 147 -40 192 -39 303 0 50
-3 92 -7 92 -4 0 -22 -5 -39 -11 -24 -9 -35 -9 -44 0 -20 20 -49 12 -90 -25
-31 -28 -41 -33 -48 -23 -5 8 -9 10 -9 5 0 -5 -7 -3 -15 4 -8 7 -15 10 -15 7
0 -3 -23 1 -51 8 -36 10 -60 24 -79 47 -25 30 -29 31 -51 20 -103 -55 -105
-56 -204 -68 -27 -4 -57 -9 -65 -13 -8 -4 -42 -8 -76 -10 -48 -2 -62 1 -67 13
-9 22 -43 20 -82 -4 -18 -11 -52 -23 -75 -26 l-41 -6 20 41 c27 52 46 62 123
59 65 -2 78 1 157 27 63 20 176 45 225 50 202 19 469 27 501 15 12 -5 29 -16
38 -25 25 -25 55 -26 71 -4 7 11 37 26 65 34 28 7 66 23 86 35 27 17 56 23
123 27 48 2 92 9 99 14 6 6 10 22 8 37 -2 15 -4 31 -4 35 -1 5 -36 6 -78 2
-184 -13 -220 -16 -253 -21 -39 -6 -40 -6 -95 -22 -22 -6 -53 -14 -70 -16 -16
-3 -41 -8 -55 -11 -80 -18 -391 -27 -406 -13 -4 4 -8 45 -10 90 -2 46 -6 118
-9 160 -12 139 -9 213 9 305 6 29 -27 53 -70 53 -23 0 -42 -9 -64 -31z m141
-891 c1 -24 -3 -123 -5 -126 -2 -1 -16 2 -31 8 -16 6 -50 12 -76 15 -38 3 -51
0 -66 -17 -23 -26 -62 -46 -104 -53 -18 -3 -35 -8 -37 -10 -3 -2 -17 2 -33 11
-60 31 -24 87 71 109 8 2 42 11 75 21 90 25 189 51 198 53 4 0 7 -5 8 -11z
m227 -3 c26 4 79 8 119 10 62 3 75 1 96 -18 18 -16 23 -29 20 -51 -8 -56 -21
-69 -61 -62 -60 10 -67 12 -79 19 -19 12 -63 0 -102 -28 -21 -14 -46 -25 -57
-25 -26 0 -39 -10 -55 -45 -8 -16 -21 -31 -30 -33 -26 -5 -30 24 -8 52 12 15
20 39 19 58 -3 82 0 93 25 116 21 17 30 20 46 12 10 -6 40 -8 67 -5z m1405
-68 c11 -18 12 -28 4 -43 -24 -44 -50 -56 -61 -28 -10 26 -7 44 12 69 21 30
26 31 45 2z m-2091 -32 c29 -17 12 -53 -31 -65 -20 -5 -60 -21 -88 -35 -44
-21 -56 -23 -78 -13 -50 23 -21 62 80 107 17 7 37 17 45 21 16 7 44 2 72 -15z
m2194 -44 c13 -16 43 -58 66 -93 24 -35 46 -64 50 -66 4 -2 8 -8 8 -12 0 -5
25 -48 56 -95 32 -50 57 -100 60 -121 2 -20 11 -49 19 -65 9 -16 13 -29 9 -29
-4 0 -1 -6 5 -14 7 -8 13 -35 15 -61 4 -52 8 -57 38 -62 51 -8 98 -62 85 -97
-12 -31 -88 21 -111 76 -11 24 -31 42 -75 66 -34 17 -62 32 -63 32 -2 0 -3
-15 -2 -32 2 -56 -5 -68 -31 -58 -13 5 -25 6 -29 3 -3 -3 -32 37 -64 88 -85
134 -121 166 -117 102 1 -15 -2 -40 -6 -56 -4 -15 -11 -51 -14 -80 -4 -28 -9
-54 -11 -56 -2 -2 1 -10 7 -18 6 -7 9 -13 6 -13 -3 0 -1 -15 4 -32 5 -18 11
-44 14 -58 3 -14 7 -34 9 -45 21 -110 20 -115 -24 -90 -33 19 -42 18 -36 -2 3
-10 8 -35 11 -56 l6 -37 -34 19 c-19 11 -37 18 -39 15 -3 -2 -12 4 -22 15 -24
27 -24 86 2 114 19 20 19 25 6 62 -22 65 -24 97 -10 145 8 25 17 92 20 150 3
58 8 116 10 130 9 44 23 162 25 208 0 12 5 22 10 22 17 0 49 -55 55 -95 7 -44
29 -81 62 -108 22 -17 76 -115 80 -145 2 -8 4 -15 6 -15 2 -1 12 -7 23 -13 36
-19 54 -7 45 30 -4 18 -14 46 -22 62 -9 16 -26 49 -38 74 -13 25 -33 56 -46
70 -38 41 -68 120 -70 185 -2 52 7 85 23 85 2 0 15 -13 29 -29z m-2528 -20
c26 -2 11 -40 -25 -63 -20 -12 -44 -28 -52 -33 -9 -6 -25 -15 -35 -22 -18 -10
-18 -13 -5 -34 20 -31 14 -53 -18 -70 -23 -12 -27 -12 -37 5 -32 53 -43 61
-72 51 -25 -9 -29 -16 -31 -54 -2 -43 -38 -111 -58 -110 -5 0 -28 6 -49 14
-22 8 -43 12 -48 9 -4 -3 -8 1 -9 8 0 7 -2 21 -4 30 -3 16 25 56 73 105 23 23
28 25 67 27 11 1 42 19 68 41 59 49 163 102 197 99 14 -1 31 -2 38 -3z m571
-256 c16 -16 15 -51 -3 -130 -27 -122 -28 -137 -31 -281 -2 -143 -8 -167 -48
-211 -18 -20 -103 -56 -123 -52 -5 1 -11 1 -14 0 -3 -1 -21 -3 -40 -5 -31 -2
-171 -41 -240 -66 -14 -5 -41 -12 -60 -15 -19 -3 -43 -8 -53 -11 -10 -3 -37
-7 -62 -9 -63 -6 -69 6 -71 141 0 63 -4 117 -7 120 -3 3 -2 17 4 31 6 17 6 22
-3 17 -6 -4 -8 -3 -5 3 4 6 9 44 11 86 5 82 27 137 54 137 9 0 29 -10 44 -23
15 -12 40 -32 55 -44 15 -12 38 -30 49 -40 82 -70 137 -103 164 -96 47 12 28
38 -158 210 -71 66 -81 91 -47 127 19 20 132 86 150 86 3 0 10 3 17 5 84 31
392 45 417 20z m458 -107 c101 -31 166 -60 194 -84 9 -8 32 -16 52 -17 20 -2
40 -6 43 -10 4 -4 14 -7 22 -7 8 0 45 -14 81 -31 36 -18 100 -47 141 -66 88
-41 101 -50 94 -68 -5 -13 -34 -21 -114 -30 -105 -12 -139 -17 -210 -32 -95
-19 -98 -20 -137 -32 -18 -5 -33 -8 -33 -6 0 3 -12 0 -27 -6 -16 -6 -37 -12
-48 -15 -79 -14 -144 -21 -193 -20 -54 1 -57 2 -55 26 9 110 3 200 -20 269
-20 60 -23 81 -15 115 5 22 14 44 21 49 19 12 97 -1 204 -35z m1523 -238 c0
-4 22 -31 49 -61 l49 -53 41 27 c33 22 43 25 47 13 6 -14 -21 -76 -38 -87 -9
-6 70 -139 83 -139 4 0 16 10 26 23 10 13 23 26 30 30 11 7 55 -31 83 -73 8
-12 21 -28 28 -36 24 -25 12 -40 -28 -34 -8 1 -30 15 -48 31 -18 16 -37 27
-43 24 -9 -6 37 -80 74 -117 23 -24 14 -38 -24 -38 -24 0 -45 15 -108 81 -50
52 -83 96 -92 121 -13 41 -37 62 -57 49 -20 -12 -8 -52 28 -95 20 -22 53 -67
74 -99 21 -31 62 -78 92 -103 53 -45 54 -48 54 -100 0 -59 -10 -69 -67 -72
-35 -2 -31 -6 -173 176 -36 46 -76 105 -89 130 -44 84 -24 192 35 192 20 0 18
6 -18 64 -25 40 -33 64 -34 108 -2 46 0 56 12 51 8 -3 14 -9 14 -13z m813
-161 c33 1 75 -3 93 -9 31 -10 33 -14 23 -33 -19 -37 -102 -117 -121 -117 -26
0 -82 39 -106 74 -36 53 -36 61 0 78 18 9 37 13 42 10 5 -3 36 -4 69 -3z
m-1791 -37 c-7 -2 -12 -9 -12 -15 -1 -23 -49 -47 -107 -53 -32 -3 -70 -9 -85
-14 -26 -8 -27 -8 -17 18 15 39 49 72 73 71 29 -2 140 12 146 18 2 2 6 -1 9
-8 2 -7 -1 -15 -7 -17z m1458 -60 c0 -16 -41 -52 -52 -46 -4 3 0 24 9 49 15
39 18 42 30 27 7 -9 13 -23 13 -30z m-1842 2 c28 -12 32 -16 23 -33 -11 -21
-51 -36 -115 -46 -22 -3 -55 -17 -74 -31 -32 -25 -45 -28 -162 -38 -19 -1 -46
0 -60 4 -35 10 -127 -20 -186 -59 -58 -38 -78 -39 -109 -5 -33 36 -32 47 12
70 20 10 52 28 72 39 30 16 54 19 150 18 121 -1 139 3 209 50 24 16 56 33 70
37 44 12 135 9 170 -6z m1132 -141 c46 -32 57 -49 55 -87 -1 -41 -24 -70 -47
-61 -9 4 -23 33 -33 68 -9 34 -19 70 -21 80 -7 22 14 22 46 0z m-1900 -83 c22
-35 -18 -56 -125 -65 -27 -2 -50 -5 -50 -5 0 -8 -91 -8 -106 1 -33 17 -70 2
-134 -56 -61 -56 -81 -63 -116 -44 -15 7 -27 6 -48 -4 -43 -22 -125 0 -119 31
3 17 47 52 69 56 14 3 58 19 94 35 22 10 56 23 68 26 4 2 8 3 10 5 1 1 11 3
22 6 19 4 32 4 100 1 17 0 46 2 65 6 19 4 67 10 105 13 39 4 71 7 72 8 9 8 87
-4 93 -14z m999 -15 c25 -15 -38 -121 -66 -111 -7 3 -13 1 -13 -3 0 -14 -54
-29 -90 -25 -45 5 -63 30 -44 64 39 72 74 92 147 86 32 -3 61 -8 66 -11z
m1151 -10 c17 -46 -18 -84 -38 -40 -8 17 -7 28 4 44 19 27 22 26 34 -4z
m-1478 -20 c6 -31 -18 -83 -43 -90 -17 -6 -118 -71 -129 -84 -10 -12 -35 -12
-57 0 -29 16 -67 75 -60 94 9 21 48 43 92 50 54 9 81 17 140 44 35 16 52 12
57 -14z m1248 -118 c0 -12 -7 -31 -15 -41 -12 -16 -17 -17 -30 -6 -18 15 -19
43 -3 69 15 25 48 10 48 -22z m-2642 11 c16 -2 15 -19 -5 -70 -22 -59 -24 -60
-67 -39 -32 17 -48 18 -95 9 -3 -1 -18 2 -33 6 -41 12 -35 40 15 75 48 33 85
40 137 28 19 -5 41 -9 48 -9z m1010 8 c10 -6 8 -71 -2 -103 -4 -13 -15 -23
-24 -24 -9 0 -33 -3 -52 -6 -58 -8 -103 -5 -111 9 -13 20 -11 74 4 86 33 27
160 53 185 38z m-373 -100 c24 -44 17 -64 -30 -90 -22 -12 -79 -43 -126 -69
l-86 -47 -32 38 c-17 20 -31 45 -31 54 0 28 49 66 142 112 103 51 137 51 163
2z m2449 -40 c-12 -39 -25 -48 -40 -29 -18 24 -17 43 3 65 16 18 18 18 30 2 7
-10 10 -27 7 -38z m-2949 -98 c-3 -17 -9 -37 -13 -43 -12 -21 -96 -115 -102
-115 -3 0 -7 19 -9 42 -1 23 -4 45 -6 48 -7 11 48 68 80 85 46 23 56 20 50
-17z m73 -61 c9 -7 6 -13 -15 -24 -33 -17 -55 -10 -46 14 12 33 27 36 61 10z
m2559 -74 c28 -43 63 -102 79 -131 26 -50 50 -73 82 -78 20 -3 42 -25 42 -40
0 -17 3 -17 -40 -1 -121 44 -207 111 -248 194 -29 58 -16 133 22 133 7 0 35
-35 63 -77z m-2861 33 c12 -14 21 -33 19 -43 -2 -10 -4 -23 -4 -30 -1 -6 -46
-34 -101 -62 -55 -29 -112 -63 -126 -76 -34 -32 -57 -32 -83 1 -27 35 -26 56
5 106 35 55 81 95 124 109 19 6 40 16 45 21 19 18 98 2 121 -26z m3062 -34 c9
-6 6 -14 -12 -31 -27 -25 -43 -14 -26 19 12 22 18 24 38 12z m-1568 -47 c153
-9 149 -8 196 -33 24 -12 63 -22 95 -23 64 -3 212 -38 289 -69 30 -12 78 -29
105 -37 71 -21 115 -43 115 -58 0 -6 -17 -17 -37 -23 -33 -9 -288 -61 -380
-76 -18 -4 -48 -9 -65 -12 -44 -8 -71 -11 -148 -19 -81 -8 -230 -38 -290 -59
-60 -21 -90 -21 -91 2 0 9 -2 28 -4 42 -3 21 -15 229 -17 295 -2 66 17 84 86
79 17 -2 83 -6 146 -9z m-650 -74 c11 -8 14 -38 14 -148 -1 -146 -7 -208 -29
-259 -17 -40 -20 -42 -91 -48 -95 -8 -200 -33 -339 -82 -71 -25 -134 -46 -140
-48 -5 -2 -23 -8 -39 -15 -16 -6 -43 -13 -60 -15 -17 -2 -56 -8 -86 -12 -30
-4 -73 -8 -95 -8 l-40 -1 -1 77 c-1 86 9 113 61 173 20 22 42 54 51 72 22 46
74 98 120 121 37 19 222 90 254 98 12 3 91 26 320 93 37 11 83 12 100 2z
m2050 -139 c36 -76 49 -124 44 -167 -2 -21 -7 -42 -11 -46 -13 -13 -93 145
-95 185 -2 64 37 82 62 28z m-3054 -110 c-3 -3 -15 3 -26 13 -21 19 -24 42
-13 84 5 22 9 17 25 -33 11 -32 17 -61 14 -64z m2705 25 c2 -14 2 -4 -6 -107
-4 -47 -8 -104 -9 -128 -2 -29 -11 -51 -28 -70 -38 -42 -40 -56 -8 -99 25 -32
29 -47 30 -100 0 -80 -12 -111 -47 -118 -39 -9 -73 -26 -101 -52 -28 -26 -42
-29 -42 -10 0 6 -6 24 -14 38 -7 14 -17 43 -21 65 -5 21 -9 41 -10 44 -19 74
-22 198 -6 256 9 35 80 159 100 174 3 3 18 21 33 41 15 20 41 51 58 68 26 25
35 29 51 21 10 -6 20 -16 20 -23z m-304 -59 c30 -28 29 -47 -6 -88 -26 -31
-30 -33 -46 -20 -16 13 -20 11 -46 -19 -24 -29 -30 -32 -44 -21 -18 15 -12 44
16 74 11 11 19 23 19 26 0 16 60 68 79 70 3 0 15 -10 28 -22z m-217 -73 c9
-11 9 -22 -1 -52 -7 -21 -14 -43 -15 -50 -1 -6 -6 -18 -11 -27 -8 -14 -11 -14
-28 -2 -30 21 -31 105 -2 128 27 22 41 22 57 3z m-140 -71 c0 -41 -2 -45 -20
-40 -11 3 -29 9 -40 12 -12 3 -20 14 -20 28 0 30 15 43 50 44 29 1 30 -1 30
-44z m-105 -70 c-17 -41 -29 -37 -40 13 -6 29 -4 32 22 35 36 4 38 -2 18 -48z
m1173 48 c21 -14 22 -49 2 -67 -18 -16 -19 -15 -29 22 -6 21 -11 41 -11 46 0
9 22 9 38 -1z m-1377 -21 c4 0 9 -10 12 -21 6 -23 -41 -63 -65 -56 -11 4 -95
14 -145 18 -17 2 -17 23 0 36 7 6 42 14 77 18 36 3 66 7 68 9 2 2 36 0 53 -4z
m2015 -62 c28 -31 22 -83 -20 -169 -20 -41 -34 -81 -31 -87 2 -7 1 -13 -4 -13
-5 0 -11 -10 -14 -22 -3 -13 -13 -42 -21 -66 -9 -24 -18 -64 -20 -90 -3 -26
-5 -47 -6 -47 -1 0 -4 -11 -6 -25 -2 -13 -12 -35 -20 -48 -9 -13 -13 -30 -10
-38 3 -8 2 -14 -2 -14 -4 0 -8 -8 -8 -17 -4 -109 -29 -183 -61 -179 -17 3 -50
55 -58 92 -2 11 -12 39 -21 64 -21 54 -26 272 -8 311 20 42 95 203 108 229 13
28 53 38 86 20 24 -13 30 -10 35 17 2 10 4 18 5 18 1 0 4 11 6 24 4 25 31 61
44 61 4 0 15 -9 26 -21z m-627 -62 c26 -46 26 -57 3 -57 -24 0 -59 79 -40 91
7 4 13 7 14 6 1 -1 11 -19 23 -40z m-2236 3 c22 -31 9 -78 -30 -108 -19 -15
-44 -34 -55 -43 -22 -17 -29 -51 -16 -87 10 -28 -7 -63 -26 -56 -9 3 -13 18
-11 42 4 55 -9 72 -53 72 -50 -1 -68 -17 -75 -70 -5 -38 -13 -52 -58 -92 -29
-25 -58 -44 -66 -41 -14 6 -18 53 -4 53 17 0 32 57 34 128 2 54 8 76 22 93 31
34 85 64 150 83 33 9 80 23 105 31 60 19 67 18 83 -5z m1439 -3 c8 -12 2 -93
-8 -109 -3 -5 2 -20 11 -34 9 -14 15 -27 13 -28 -4 -3 -151 -36 -159 -36 -4 0
0 19 8 43 8 23 17 66 19 96 7 82 17 95 67 87 23 -4 45 -12 49 -19z m-280 -22
c-8 -43 -34 -83 -59 -90 -14 -3 -38 -16 -55 -28 -28 -21 -39 -22 -221 -21
-191 2 -192 2 -214 -23 -13 -13 -23 -27 -23 -31 0 -4 17 -16 37 -27 20 -11 47
-28 60 -39 22 -17 23 -20 8 -36 -11 -13 -29 -17 -64 -15 -68 3 -74 9 -69 69 5
62 33 123 69 149 35 25 106 33 166 17 104 -27 131 -21 176 37 32 40 88 60 162
59 24 -1 29 -5 27 -21z m-1564 -63 c25 -3 4 -84 -31 -120 -34 -36 -94 -71
-134 -78 -14 -3 -45 -14 -70 -26 -45 -21 -46 -21 -60 -2 -19 26 -9 77 27 129
40 58 52 66 133 85 64 15 88 17 135 12z m2667 -97 c-8 -32 -9 -60 -5 -195 2
-92 -25 -192 -56 -204 -14 -5 -15 3 -8 66 4 40 7 93 6 118 -2 43 -2 85 2 175
1 22 -2 50 -6 62 -5 17 -2 26 14 37 19 14 23 13 40 -7 15 -16 18 -29 13 -52z
m-3266 -20 c15 -8 -17 -62 -51 -87 l-31 -22 -24 28 c-12 15 -23 31 -23 36 0 5
19 20 41 34 39 22 65 26 88 11z m2209 -30 c14 -14 32 -25 41 -26 22 -1 61 -8
91 -16 14 -3 50 -7 80 -8 77 -3 80 -3 74 -19 -8 -21 -69 -32 -158 -30 -69 2
-82 6 -105 29 -15 14 -29 23 -32 21 -2 -2 -30 -7 -61 -10 -31 -4 -83 -11 -115
-16 -98 -16 -104 -13 -73 39 23 36 80 57 161 59 65 2 75 -1 97 -23z m-1319
-119 c9 -11 9 -19 -1 -35 -7 -12 -17 -21 -23 -22 -102 -11 -127 7 -63 45 49
29 70 32 87 12z m-509 -44 c25 -47 25 -47 73 -45 40 2 47 0 47 -16 0 -49 -35
-80 -70 -61 -29 16 -56 -3 -64 -44 -14 -74 -69 -47 -73 35 -3 70 31 179 56
179 3 0 17 -21 31 -48z m2342 16 c15 -12 23 -37 19 -61 -1 -10 -61 21 -61 32
0 5 -3 16 -6 25 -8 20 24 22 48 4z m774 -63 c30 -72 17 -87 -80 -90 -55 -2
-59 0 -76 27 -25 42 -16 63 38 81 79 26 101 22 118 -18z m-946 3 c0 -5 0 -12
0 -17 0 -5 -16 -16 -36 -26 -32 -15 -37 -15 -60 -1 -32 22 -31 28 13 47 35 15
82 13 83 -3z m-3696 -57 c3 -5 -5 -25 -19 -45 -14 -20 -25 -40 -25 -45 0 -28
-101 -74 -115 -52 -8 14 58 133 79 141 28 12 73 12 80 1z m2650 -103 l26 -23
-43 -47 c-23 -26 -50 -57 -60 -70 l-18 -23 -23 27 c-21 24 -23 32 -15 74 5 26
16 56 26 66 23 25 76 23 107 -4z m291 2 c49 -16 92 -55 100 -90 3 -16 8 -64
10 -109 2 -44 6 -84 9 -89 3 -5 8 -29 11 -54 6 -42 4 -47 -27 -72 -18 -14 -39
-31 -45 -37 -7 -5 -13 -8 -13 -5 0 3 -25 -6 -55 -20 -70 -32 -216 -41 -276
-17 -22 8 -39 19 -39 24 0 15 43 37 87 44 75 12 97 64 64 149 -8 19 -9 38 -3
56 10 28 8 132 -3 150 -4 6 -4 24 0 40 5 23 14 32 38 38 41 11 93 8 142 -8z
m-770 -54 c12 -15 12 -170 1 -341 -3 -54 6 -69 64 -107 28 -18 50 -36 50 -40
0 -3 -16 -20 -36 -36 -38 -32 -123 -58 -240 -76 -22 -3 -50 -8 -64 -11 -14 -2
-43 -7 -65 -10 -84 -12 -103 -16 -218 -51 -64 -19 -126 -37 -137 -40 -30 -6
-41 -9 -235 -64 -99 -28 -188 -53 -198 -55 -10 -2 -27 -7 -37 -10 -10 -3 -34
-8 -54 -10 -43 -6 -44 -3 -17 98 11 39 22 83 24 97 13 65 52 143 94 187 50 52
87 79 246 179 73 46 137 87 142 91 6 5 40 23 77 42 37 18 70 36 73 40 4 3 10
6 13 7 4 0 25 8 47 18 22 9 85 28 140 42 91 22 166 42 250 64 41 10 66 6 80
-14z m-2383 -23 c22 -20 23 -66 2 -98 -13 -20 -14 -28 -4 -40 7 -8 18 -15 24
-15 6 0 20 -7 30 -15 26 -20 7 -41 -43 -48 -21 -2 -70 -23 -108 -46 -38 -23
-72 -41 -76 -41 -15 0 -6 25 37 100 24 43 51 100 60 127 16 49 42 93 53 93 4
0 15 -7 25 -17z m3708 1 c64 -15 135 -35 270 -76 38 -11 70 -26 71 -32 0 -6 3
-32 5 -57 4 -39 2 -47 -13 -52 -10 -3 -49 -15 -88 -27 -38 -12 -108 -23 -155
-25 -119 -6 -149 -11 -284 -45 -65 -16 -126 -30 -136 -30 -32 0 -46 32 -49
110 -3 122 31 195 106 228 54 23 186 26 273 6z m755 -11 c38 -18 45 -33 18
-34 -10 0 -28 -2 -39 -5 -16 -2 -23 3 -27 18 -6 20 -1 38 8 38 2 0 20 -8 40
-17z m-333 -262 c9 -1 24 -8 33 -17 15 -16 13 -20 -24 -58 -21 -23 -41 -48
-42 -56 -7 -33 12 -66 51 -92 l42 -26 -26 -17 c-18 -12 -51 -17 -120 -18 -53
-1 -96 -5 -96 -8 0 -3 -32 -6 -71 -6 l-71 -1 7 26 c9 38 33 86 53 108 35 38
80 100 95 130 13 25 22 31 53 32 20 1 38 3 40 5 2 1 16 2 31 1 15 -1 36 -3 45
-3z m-615 -169 c6 -73 -75 -196 -136 -208 -58 -12 -141 44 -136 91 8 70 58
116 140 129 77 13 99 17 104 22 12 12 26 -5 28 -34z m-2902 9 c19 -61 2 -121
-35 -121 -46 0 -52 87 -9 123 27 22 36 22 44 -2z m-357 0 c7 0 18 -12 24 -26
10 -23 6 -33 -39 -98 -28 -39 -56 -90 -63 -112 -28 -86 -117 -284 -163 -360
-26 -44 -71 -126 -100 -182 -40 -79 -58 -105 -79 -112 -20 -7 -30 -5 -45 8
-41 38 -87 63 -155 87 -76 27 -101 39 -208 96 -105 56 -138 78 -144 95 -10 24
81 192 144 266 20 24 107 87 120 87 6 0 10 4 10 9 0 5 14 14 30 21 17 7 30 16
30 21 0 5 7 9 15 9 8 0 15 5 15 10 0 6 4 10 9 10 5 0 39 18 77 40 37 21 92 47
123 56 31 10 69 24 84 31 72 36 209 55 315 44z m2754 -72 c16 -6 28 -15 28
-20 0 -7 -52 -76 -95 -127 -2 -2 -9 -5 -17 -6 -7 -2 -26 -8 -41 -14 -16 -7
-33 -12 -38 -12 -5 0 -17 -4 -27 -10 -46 -25 -145 -51 -172 -45 -31 7 -86 57
-96 88 -9 28 18 48 120 91 128 54 281 79 338 55z m-1429 -308 c19 -2 3 -51
-32 -93 -36 -44 -59 -107 -47 -127 10 -16 -25 -34 -81 -42 -73 -10 -97 -33
-95 -90 3 -57 16 -72 64 -65 21 3 47 10 58 16 28 15 25 -3 -7 -35 -43 -42
-121 -79 -142 -66 -8 6 -9 15 -2 34 13 32 -10 61 -41 52 -27 -9 -47 11 -42 43
8 47 35 146 44 162 14 25 177 187 197 195 10 4 32 9 48 12 17 3 31 6 33 8 2 2
11 2 20 0 9 -2 20 -4 25 -4z m331 -37 c33 -43 34 -46 18 -65 -9 -10 -23 -19
-32 -19 -16 0 -90 61 -90 73 0 9 52 56 62 57 4 0 23 -21 42 -46z m3946 -70 c0
-7 11 -33 24 -56 13 -24 27 -54 31 -68 4 -14 13 -32 20 -40 8 -8 14 -19 15
-25 1 -5 17 -43 35 -82 60 -129 50 -191 -26 -164 -63 22 -69 36 -103 233 -13
75 -38 171 -47 184 -5 6 -2 20 7 33 13 17 19 20 30 10 8 -6 14 -17 14 -25z
m-5190 -19 c16 -8 30 -20 30 -25 0 -4 -25 -20 -55 -34 -30 -14 -55 -29 -55
-33 0 -14 31 -54 70 -89 31 -28 37 -40 39 -81 1 -27 -6 -68 -15 -93 -19 -52
-27 -192 -12 -229 5 -15 12 -46 14 -71 3 -25 7 -51 10 -58 5 -18 -44 -11 -77
11 -26 17 -121 54 -156 60 -58 11 -121 36 -224 87 -64 32 -145 71 -180 85 -35
15 -76 36 -91 47 -27 19 -27 19 -11 53 9 19 20 35 25 35 4 0 8 6 8 14 0 25
103 122 170 161 156 90 232 126 314 148 110 29 157 32 196 12z m495 -17 c7 -6
-35 -75 -69 -115 -26 -30 -57 -29 -81 3 -35 47 -27 81 24 105 28 14 115 19
126 7z m945 -17 c-13 -11 -28 -17 -32 -15 -4 3 -8 0 -8 -7 0 -7 -3 -9 -7 -6
-3 4 -11 2 -18 -3 -8 -7 -12 -4 -12 8 0 29 18 42 61 42 l41 0 -25 -19z m-1290
-87 c0 -17 -40 -64 -53 -64 -7 0 -25 12 -40 26 -25 23 -26 27 -12 37 20 15
105 16 105 1z m90 -95 c0 -39 -29 -79 -57 -79 -21 0 -46 -49 -46 -90 0 -43 15
-63 56 -74 l27 -6 -25 -28 -25 -27 29 -10 c39 -13 44 -20 38 -47 -6 -23 -60
-53 -118 -65 -26 -5 -29 -3 -29 20 0 14 5 29 10 32 16 10 12 34 -9 56 -18 19
-18 25 -6 65 10 33 10 53 2 79 -9 32 -7 43 23 105 23 48 45 77 69 94 46 30 61
24 61 -25z m4119 -137 c14 -10 27 -31 29 -46 4 -35 -22 -124 -63 -212 -26 -57
-42 -78 -79 -103 -25 -18 -46 -29 -46 -26 0 3 -10 1 -21 -6 -37 -19 -50 7 -55
112 -2 52 -6 110 -8 129 -13 106 -4 148 38 169 34 18 174 6 205 -17z m-3944
-28 c17 -13 18 -16 5 -24 -8 -5 -21 -10 -27 -10 -23 0 -28 -2 -38 -10 -16 -14
-50 -5 -53 13 -8 42 70 63 113 31z m-1385 -112 c25 -14 66 -36 92 -50 45 -24
63 -49 84 -122 18 -61 14 -63 -37 -17 -44 39 -128 111 -191 163 -26 22 -47 45
-47 52 -1 17 43 6 99 -26z m1839 -199 c72 -81 103 -111 135 -134 50 -34 59
-54 41 -87 -77 -136 -100 -150 -200 -123 -184 48 -196 51 -280 57 -81 6 -154
21 -172 36 -17 14 25 72 126 172 92 91 97 92 183 23 123 -100 211 -158 222
-147 17 17 -12 58 -74 108 -151 120 -144 112 -107 130 39 20 89 6 126 -35z
m326 24 c11 -3 54 -14 95 -25 41 -12 95 -23 120 -26 148 -19 186 -31 200 -66
11 -26 10 -90 -6 -275 -3 -38 -7 -87 -8 -108 -4 -47 -17 -63 -43 -48 -42 22
-59 67 -40 107 7 17 1 47 -24 125 -18 57 -33 108 -33 113 -2 16 -50 45 -84 50
-35 5 -102 -17 -102 -34 0 -6 -11 -16 -25 -22 -21 -9 -30 -7 -62 15 -21 14
-51 38 -68 54 -16 15 -47 37 -68 48 -21 11 -53 32 -70 47 -32 27 -32 28 -12
44 16 13 38 15 115 11 52 -3 104 -7 115 -10z m-1807 -136 c16 -14 51 -44 77
-66 69 -57 105 -97 105 -117 0 -31 -16 -27 -61 13 -24 21 -47 39 -50 39 -3 0
-17 9 -30 21 -13 11 -57 46 -96 76 -40 31 -70 59 -68 64 3 4 0 11 -7 15 -8 5
-6 10 8 15 21 8 76 -19 122 -60z m701 -31 c24 -25 38 -47 34 -55 -7 -21 -10
-20 -59 20 -39 32 -42 38 -31 55 6 11 13 20 14 20 1 0 20 -18 42 -40z m1849
-19 c4 -24 -6 -26 -43 -9 -39 18 -31 38 13 34 19 -2 28 -10 30 -25z m-609 -60
c14 -10 37 -37 49 -60 l24 -41 -39 -17 c-82 -35 -106 -14 -86 75 8 34 17 62
20 62 3 0 17 -9 32 -19z m886 1 c18 -13 49 -83 48 -105 -5 -56 -12 -68 -41
-61 -40 10 -59 30 -70 77 -9 33 -8 46 6 69 16 27 37 35 57 20z m-2385 -117
c96 -49 143 -78 155 -98 16 -28 16 -28 -20 -72 -31 -39 -38 -43 -58 -34 -12 6
-37 30 -56 55 -72 95 -101 122 -139 129 -71 13 -92 43 -56 80 20 19 8 24 174
-60z m5640 -17 c0 -9 -35 -10 -67 -2 -25 7 -29 24 -13 55 10 18 12 17 45 -13
19 -17 35 -35 35 -40z m-320 -523 c91 -3 221 -8 290 -11 69 -3 168 -7 220 -8
225 -8 250 -9 250 -18 0 -5 -13 -23 -29 -39 l-29 -28 -46 15 c-49 17 -85 13
-108 -10 -14 -14 -39 -24 -80 -31 -64 -12 -78 -18 -78 -29 0 -7 -11 -23 -24
-35 -28 -27 -99 -37 -233 -35 -105 2 -135 15 -173 74 -26 41 -38 50 -78 60
-60 15 -138 49 -152 65 -15 18 30 42 73 39 18 -2 106 -6 197 -9z m-4868 -169
c16 -12 16 -15 -10 -37 -61 -53 -61 -53 -68 -25 -8 31 18 76 44 76 9 0 25 -7
34 -14z m163 -127 c33 -12 73 -61 80 -98 3 -17 0 -21 -13 -17 -9 3 -53 15 -97
27 -44 11 -87 23 -95 26 -11 3 -5 13 22 39 41 37 55 40 103 23z m130 -229 c-8
-22 -11 -40 -6 -40 14 0 50 -91 56 -145 2 -19 -25 -64 -45 -75 -18 -10 -19 -7
-16 56 3 57 0 72 -25 117 -45 82 -37 119 25 125 25 2 25 1 11 -38z m100 -319
c7 -12 -34 -41 -58 -41 -29 0 -33 31 -8 51 23 19 51 14 66 -10z m23 -169 c-7
-8 -14 -9 -23 -2 -6 5 -14 8 -16 6 -2 -3 -15 4 -29 14 l-25 19 40 34 40 34 11
-46 c9 -32 9 -50 2 -59z"/>
<path d="M3620 7108 c-19 -22 -40 -46 -45 -52 -22 -22 -75 -105 -75 -116 0
-17 40 8 80 51 30 31 90 134 90 153 0 15 -18 2 -50 -36z"/>
<path d="M4140 7311 c0 -34 4 -60 8 -57 8 5 5 106 -4 115 -2 2 -4 -24 -4 -58z"/>
<path d="M4514 6002 c-7 -4 -22 -27 -34 -52 -12 -25 -26 -53 -31 -62 -15 -29
-10 -39 18 -36 35 4 65 62 61 117 -2 27 -7 38 -14 33z"/>
<path d="M4320 4669 c-25 -16 -46 -34 -48 -39 -2 -6 -10 -10 -18 -10 -8 0 -14
-4 -14 -10 0 -5 -7 -10 -15 -10 -18 0 -20 -30 -2 -31 30 -3 55 5 111 36 66 36
87 68 56 85 -23 12 -16 14 -70 -21z"/>
<path d="M3720 8776 c-121 -26 -206 -92 -260 -204 -18 -37 -34 -69 -36 -71 -2
-2 -15 6 -30 18 -33 26 -40 26 -89 -1 -39 -21 -66 -25 -167 -27 -51 -1 -96
-30 -128 -84 -17 -27 -17 -31 -1 -73 10 -24 22 -49 27 -54 20 -20 53 -18 86 3
40 27 133 68 159 70 10 1 19 4 19 8 0 4 6 6 13 5 36 -3 122 40 179 92 139 125
172 143 212 117 61 -40 51 -130 -21 -202 -38 -38 -63 -81 -63 -109 0 -20 26
-6 68 38 80 84 114 139 108 174 -4 22 -16 107 -20 146 -2 14 5 43 16 64 10 20
18 43 18 50 0 6 7 17 15 24 32 26 -19 34 -105 16z"/>
<path d="M5003 8001 c7 -36 13 -48 23 -44 14 5 13 16 -7 71 -16 41 -26 23 -16
-27z"/>
<path d="M5336 7978 c-8 -13 -27 -59 -41 -103 -46 -134 -109 -245 -140 -245
-17 0 -23 8 -29 45 -3 15 -15 37 -27 48 -21 20 -22 20 -36 1 -14 -18 -13 -63
2 -124 5 -22 17 -129 16 -155 0 -18 -11 -90 -17 -107 -20 -64 -15 -77 34 -84
49 -7 54 5 53 110 -2 96 -1 98 46 199 26 56 57 116 69 134 12 17 26 58 33 90
6 32 25 82 41 112 30 54 39 101 20 101 -5 0 -16 -10 -24 -22z"/>
<path d="M6673 6423 c-22 -39 -30 -76 -39 -183 -2 -30 -6 -65 -8 -77 -13 -63
44 20 63 94 13 49 20 148 12 181 -6 23 -7 22 -28 -15z"/>
<path d="M1145 5053 c-19 -18 -38 -63 -31 -71 8 -8 66 55 66 72 0 21 -14 20
-35 -1z"/>
<path d="M6509 4468 c-1 -7 -1 -16 -1 -19 1 -4 2 -37 3 -73 1 -36 5 -66 8 -66
28 0 45 126 21 155 -15 18 -30 19 -31 3z"/>
<path d="M6547 4264 c-3 -4 3 -29 13 -58 11 -28 21 -62 24 -76 2 -14 9 -36 14
-50 6 -14 23 -63 37 -110 24 -76 44 -110 66 -110 10 0 4 66 -10 115 -5 19 -8
35 -6 35 5 0 -50 133 -77 186 -27 52 -51 78 -61 68z"/>
<path d="M401 1448 c-50 -8 -84 -26 -75 -39 3 -5 31 -10 62 -10 32 1 64 1 72
0 53 -3 102 6 116 22 14 16 14 18 -8 25 -30 10 -116 11 -167 2z"/>
<path d="M1338 1428 c17 -18 26 -20 39 -12 33 21 26 34 -18 34 l-43 0 22 -22z"/>
<path d="M2258 1224 c-3 -2 -36 -6 -74 -9 -38 -3 -85 -8 -105 -11 -20 -2 -59
-7 -85 -10 -58 -6 -105 -13 -113 -19 -19 -11 -133 -22 -276 -26 -57 -1 -115
-9 -134 -17 -19 -8 -44 -16 -54 -18 -21 -4 -81 -21 -107 -31 -8 -3 -22 -7 -30
-8 -32 -5 -87 -16 -125 -26 -22 -5 -51 -12 -65 -15 -14 -2 -32 -7 -40 -10 -73
-26 -370 -120 -425 -134 -73 -18 -241 -57 -285 -65 -69 -13 -86 -18 -102 -33
-10 -8 -18 -21 -18 -29 0 -21 51 -21 150 1 35 8 69 15 110 22 56 11 63 12 115
24 28 6 69 22 92 35 61 34 128 53 206 59 47 4 88 15 131 36 35 16 79 32 97 34
19 3 34 5 34 6 0 1 19 3 42 6 41 4 131 46 145 68 4 6 29 11 55 12 54 1 250 13
303 19 39 4 65 9 130 24 89 20 140 26 290 36 140 9 180 15 200 27 21 13 27 38
10 38 -16 0 -23 2 -46 11 -12 4 -24 6 -26 3z"/>
<path d="M3877 983 c-1 -1 -54 -4 -118 -8 -130 -6 -143 -8 -210 -30 -34 -11
-46 -20 -42 -30 3 -10 15 -13 36 -10 62 8 214 18 307 19 52 1 101 5 108 9 17
11 15 37 -3 37 -8 0 -15 3 -15 8 0 6 -58 11 -63 5z"/>
<path d="M1300 948 c-52 -13 -65 -16 -67 -18 -2 -2 -6 -3 -10 -4 -5 -1 -37
-12 -73 -23 -80 -27 -252 -73 -288 -78 -15 -2 -27 -4 -27 -5 0 -1 -11 -4 -24
-6 -36 -6 -36 -11 -4 -28 29 -15 132 -16 193 -2 14 3 36 7 50 9 14 3 48 11 75
19 60 17 111 16 151 -4 18 -10 62 -16 119 -16 50 -1 108 -8 129 -16 26 -9 49
-11 68 -5 16 4 54 6 86 4 121 -9 198 -15 222 -20 14 -3 41 -7 60 -10 53 -7 89
-14 150 -31 94 -26 110 -27 110 -10 0 15 -12 21 -34 17 -13 -3 -96 40 -96 49
0 15 -51 41 -93 46 -23 4 -60 13 -82 21 -155 56 -195 64 -355 70 -130 4 -178
13 -210 38 -10 8 -26 9 -50 3z"/>
<path d="M3329 871 c-52 -21 -127 -49 -166 -62 -40 -12 -85 -33 -100 -45 l-28
-23 35 4 c98 11 180 35 273 80 59 29 105 69 90 78 -5 3 -52 -11 -104 -32z"/>
<path d="M4930 893 c1 -29 43 -53 86 -48 158 15 159 64 2 65 -77 0 -88 -2 -88
-17z"/>
<path d="M6120 809 c0 -5 9 -18 20 -29 l21 -21 30 22 c17 12 28 23 25 26 -9
10 -96 11 -96 2z"/>
<path d="M8105 781 c-46 -19 -134 -151 -101 -151 57 0 154 104 139 148 -5 14
-10 14 -38 3z"/>
<path d="M2945 724 c-33 -7 -80 -15 -105 -19 -66 -8 -103 -19 -108 -33 -4 -14
118 -10 200 6 48 9 98 35 98 51 0 10 -14 10 -85 -5z"/>
<path d="M4630 700 c-14 -4 -40 -16 -58 -27 l-33 -21 27 -21 c27 -21 70 -27
89 -13 18 12 46 62 36 62 -6 0 -8 6 -5 13 5 15 -19 18 -56 7z"/>
<path d="M2260 680 c6 -11 14 -20 18 -20 4 0 25 -16 47 -35 41 -36 72 -44 93
-23 8 8 46 13 105 14 51 0 100 4 110 8 9 3 25 9 35 12 35 11 -16 25 -91 25
-74 0 -102 -3 -112 -13 -11 -11 -82 2 -149 27 -64 24 -66 24 -56 5z"/>
<path d="M8370 640 c-53 -30 -73 -49 -67 -64 5 -12 13 -13 38 -6 17 5 34 9 38
8 3 0 9 1 14 2 15 5 28 8 46 9 22 1 33 42 15 58 -16 15 -51 12 -84 -7z"/>
<path d="M4635 569 c-27 -11 -59 -23 -70 -28 -17 -8 -48 -20 -65 -26 -3 -1
-12 -4 -20 -8 -74 -30 -215 -59 -300 -62 -25 -1 -50 -2 -57 -3 -6 -1 -17 -27
-23 -57 -13 -65 -8 -62 -165 -80 -61 -8 -159 -54 -163 -77 -3 -18 -5 -18 118
-3 49 6 112 16 185 31 56 11 188 65 326 135 97 48 154 71 191 75 54 6 81 18
113 51 10 10 36 19 59 20 96 6 136 17 136 40 0 23 -200 17 -265 -8z"/>
<path d="M3723 359 c-43 -21 -62 -47 -42 -60 9 -5 44 -5 44 1 0 1 7 3 16 5 9
1 38 13 65 25 l49 22 -30 14 c-40 18 -52 17 -102 -7z"/>
<path d="M5516 203 c-1 -1 -40 -5 -86 -8 -125 -9 -142 -12 -175 -25 -97 -40
-225 -55 -301 -35 -28 6 -50 10 -119 21 -16 2 -79 6 -140 9 -60 2 -132 7 -160
9 -180 17 -226 17 -278 0 -29 -10 -56 -19 -62 -20 -42 -8 -103 -15 -175 -19
-125 -7 -162 -14 -182 -38 -27 -30 -4 -58 66 -81 49 -16 61 -17 84 -6 43 21
49 22 202 25 133 3 238 9 380 19 30 3 55 5 55 6 0 1 52 3 115 5 63 2 125 6
137 9 12 2 62 7 110 11 140 9 205 15 213 20 7 5 50 14 95 21 17 3 71 6 120 8
95 4 176 23 235 56 l35 20 -83 -2 c-46 -2 -85 -4 -86 -5z"/>
</g>
</svg>
